<svg width="40" height="18" viewBox="0 0 40 18" fill="none" xmlns="http://www.w3.org/2000/svg">
<g clip-path="url(#clip0_156_8943)">
<path d="M7.27127 2.90283C6.80487 3.45509 6.05864 3.89067 5.3124 3.82844C5.21912 3.08173 5.58446 2.28835 6.012 1.79832C6.47839 1.2305 7.29459 0.826035 7.95533 0.794922C8.03306 1.57275 7.7299 2.33502 7.27127 2.90283ZM7.94755 3.97623C6.86706 3.91401 5.94204 4.59071 5.429 4.59071C4.90818 4.59071 4.12308 4.00734 3.26801 4.0229C2.15643 4.03846 1.12257 4.6685 0.55512 5.67189C-0.610879 7.67869 0.251961 10.65 1.37909 12.2834C1.931 13.0924 2.59173 13.9791 3.46234 13.948C4.28632 13.9169 4.6128 13.4113 5.60778 13.4113C6.61054 13.4113 6.89815 13.948 7.76877 13.9324C8.67047 13.9169 9.23793 13.1235 9.78983 12.3145C10.4195 11.3967 10.676 10.5022 10.6915 10.4555C10.676 10.44 8.95031 9.77882 8.93477 7.78758C8.91922 6.12303 10.2951 5.32965 10.3573 5.28298C9.57995 4.1318 8.36731 4.00734 7.94755 3.97623ZM14.1895 1.72054V13.8468H16.0707V9.70103H18.6747C21.0534 9.70103 22.7246 8.0676 22.7246 5.70301C22.7246 3.33841 21.0845 1.72054 18.7369 1.72054H14.1895ZM16.0707 3.3073H18.2394C19.8718 3.3073 20.8046 4.17847 20.8046 5.71078C20.8046 7.2431 19.8718 8.12205 18.2317 8.12205H16.0707V3.3073ZM26.1605 13.9402C27.342 13.9402 28.438 13.3413 28.9355 12.3923H28.9744V13.8468H30.7156V7.81092C30.7156 6.06081 29.3164 4.93296 27.1632 4.93296C25.1655 4.93296 23.6885 6.07636 23.6341 7.64757H25.3287C25.4686 6.90086 26.1605 6.41083 27.1088 6.41083C28.2593 6.41083 28.9044 6.94753 28.9044 7.93537V8.6043L26.5569 8.74431C24.3726 8.87654 23.191 9.77104 23.191 11.3267C23.191 12.8979 24.4115 13.9402 26.1605 13.9402ZM26.6657 12.5012C25.663 12.5012 25.0256 12.019 25.0256 11.28C25.0256 10.5178 25.6396 10.0744 26.8134 10.0044L28.9044 9.87216V10.5566C28.9044 11.6923 27.9406 12.5012 26.6657 12.5012ZM33.0399 17.1448C34.8744 17.1448 35.7372 16.4448 36.4912 14.3213L39.7949 5.04963H37.8826L35.6672 12.2134H35.6284L33.413 5.04963H31.4463L34.6334 13.878L34.4624 14.4147C34.1748 15.3247 33.7084 15.6747 32.8766 15.6747C32.7289 15.6747 32.4413 15.6592 32.3247 15.6436V17.0982C32.4335 17.1293 32.8999 17.1448 33.0399 17.1448Z" fill="black"/>
</g>
<defs>
<clipPath id="clip0_156_8943">
<rect width="40" height="16.4103" fill="white" transform="translate(0 0.794922)"/>
</clipPath>
</defs>
</svg>
