<svg width="23" height="28" viewBox="0 0 23 28" fill="none" xmlns="http://www.w3.org/2000/svg">
<path d="M19.0736 14.7628C19.0617 12.5655 20.0555 10.9071 22.0672 9.68577C20.9416 8.07525 19.2413 7.18917 16.9961 7.01554C14.8707 6.8479 12.5477 8.25486 11.6976 8.25486C10.7995 8.25486 8.73997 7.07541 7.12346 7.07541C3.78269 7.1293 0.232361 9.73965 0.232361 15.0502C0.232361 16.6188 0.51974 18.2393 1.0945 19.9117C1.86084 22.1089 4.62686 27.4973 7.51262 27.4075C9.02136 27.3715 10.0871 26.3358 12.0508 26.3358C13.9547 26.3358 14.9426 27.4075 16.6249 27.4075C19.5346 27.3655 22.0372 22.4681 22.7676 20.2649C18.8641 18.4269 19.0736 14.8765 19.0736 14.7628ZM15.685 4.93205C17.3194 2.99224 17.1697 1.22606 17.1218 0.591431C15.679 0.675249 14.0086 1.57331 13.0566 2.68091C12.0089 3.86635 11.3922 5.33318 11.5239 6.98561C13.0866 7.10535 14.5115 6.30308 15.685 4.93205Z" fill="black"/>
</svg>
