<svg width="40" height="12" viewBox="0 0 40 12" fill="none" xmlns="http://www.w3.org/2000/svg">
<path d="M5.49862 11.826C4.61017 11.7929 3.7232 11.5407 2.94442 11.0998C2.21412 10.6864 1.56546 10.0996 1.08 9.41329C0.461674 8.53908 0.114558 7.581 0.0129483 6.46809C-0.00431464 6.27901 -0.00431655 5.72144 0.0129452 5.53137C0.0862151 4.72459 0.268526 4.06485 0.607396 3.38018C0.794138 3.00287 0.978592 2.70612 1.21672 2.39989C1.93682 1.47384 2.8346 0.833925 3.95194 0.450292C4.20654 0.362875 4.5773 0.274487 4.88321 0.228278C5.41293 0.148262 6.03434 0.147847 6.55479 0.227158C7.27325 0.336647 7.93335 0.566819 8.55385 0.924213C9.9948 1.75416 11.0274 3.21006 11.3463 4.8615C11.4614 5.45745 11.4837 6.0826 11.4123 6.71316C11.3683 7.1012 11.2659 7.54635 11.1304 7.93853C10.6714 9.26627 9.74077 10.393 8.53024 11.0865C7.77543 11.519 6.84532 11.7917 6.02144 11.8222C5.94356 11.825 5.84063 11.8288 5.7927 11.8306C5.74478 11.8323 5.61244 11.8303 5.49862 11.826ZM4.2472 8.25547C4.60553 8.2 4.83386 8.13654 5.49862 7.90767C5.67235 7.84785 5.95084 7.75201 6.11749 7.69468C6.76208 7.47293 7.13696 7.38986 7.55723 7.37565C8.0496 7.359 8.5026 7.47345 8.89109 7.71263C8.94063 7.74313 8.9755 7.75683 9.00563 7.75764C9.04662 7.75874 9.04971 7.75653 9.06298 7.71659C9.07424 7.68273 9.07644 7.34114 9.07412 5.99019L9.07123 4.30601L9.04725 4.2546C9.01517 4.18581 8.94818 4.11509 8.86034 4.05727C8.6036 3.88828 8.32417 3.7765 8.02014 3.72118C7.86733 3.69337 7.49713 3.68741 7.33939 3.71022C6.93978 3.76801 6.54024 3.89643 5.41693 4.32814C5.03437 4.47516 4.74898 4.56923 4.50744 4.62793C3.76382 4.80865 3.17929 4.72714 2.59587 4.36137C2.46746 4.28087 2.43283 4.27329 2.40279 4.31914C2.38455 4.34697 2.3833 4.4412 2.38026 6.01559C2.3767 7.85747 2.3736 7.76873 2.44456 7.85482C2.4623 7.87634 2.51799 7.91882 2.56831 7.94922C2.85254 8.1209 3.19893 8.23891 3.52715 8.27587C3.67333 8.29233 4.08433 8.28068 4.2472 8.25547ZM13.6239 8.94922C13.621 8.94149 13.6198 7.61666 13.6213 6.00518L13.6241 3.0752H14.7733C16.0164 3.0752 16.0246 3.07553 16.309 3.1368C17.2938 3.34893 18.1147 4.08806 18.4424 5.05756C18.641 5.64508 18.6491 6.3052 18.4649 6.90495C18.2856 7.48895 17.9067 8.02687 17.418 8.3914C17.0955 8.63187 16.7222 8.80372 16.3297 8.89233C16.0413 8.95742 16.089 8.95531 14.8085 8.95947C13.852 8.96257 13.6282 8.96064 13.6239 8.94922ZM15.7644 7.68799C16.1074 7.67064 16.3342 7.59794 16.6086 7.4175C16.7529 7.3226 16.9654 7.11161 17.0596 6.96964C17.4573 6.37054 17.4493 5.61737 17.0389 5.03578C16.9561 4.91847 16.7822 4.74126 16.6663 4.65616C16.5048 4.53758 16.2789 4.43289 16.086 4.38719C15.9259 4.34929 15.8464 4.34456 15.3573 4.34391L14.8715 4.34326L14.8687 6.01514L14.8658 7.68702L14.904 7.69113C14.9848 7.69984 15.5726 7.69769 15.7644 7.68799ZM20.7558 7.168C20.7593 5.39799 20.7597 5.37149 20.7826 5.23159C20.8627 4.7414 21.0408 4.33851 21.3364 3.97924C21.8352 3.37279 22.5569 3.04472 23.329 3.07335C23.697 3.08699 24.0056 3.16461 24.3311 3.32533C24.9933 3.65235 25.4845 4.27356 25.6584 5.00379C25.7278 5.29504 25.7239 5.1764 25.7278 7.15702L25.7313 8.96238H25.1102H24.489V8.33064V7.6989H23.2474H22.0058L22.003 8.32792L22.0002 8.95694L21.3762 8.95975L20.7522 8.96256L20.7558 7.168ZM24.4832 5.94527C24.4829 5.41953 24.4796 5.38255 24.4167 5.19371C24.2719 4.75936 23.8845 4.42629 23.4408 4.35478C23.3166 4.33475 23.0488 4.34626 22.9369 4.37644C22.5355 4.48476 22.2121 4.78728 22.0725 5.1852C22.011 5.3603 22.0057 5.42163 22.0057 5.95349V6.43551L23.2446 6.43274L24.4836 6.42997L24.4832 5.94527ZM27.8951 7.22782C27.8966 6.08853 27.9015 5.44652 27.9093 5.35709C27.9538 4.84536 28.171 4.33213 28.5112 3.93514C29.0905 3.25897 29.9786 2.9467 30.8461 3.11412C31.8137 3.30084 32.5866 4.05906 32.8047 5.03544C32.8718 5.33587 32.8688 5.23978 32.873 7.18425L32.8769 8.96238H32.2501H31.6234L31.6232 7.23871C31.6232 5.79818 31.6206 5.49802 31.6076 5.41151C31.5731 5.18285 31.4776 4.96655 31.336 4.79615C31.1475 4.56937 30.9029 4.42147 30.6156 4.36063C30.5146 4.33922 30.2683 4.33921 30.1556 4.36059C29.6312 4.46006 29.2174 4.90462 29.152 5.43878C29.1437 5.50642 29.1399 6.06788 29.1399 7.2496V8.96238L28.5163 8.96238L27.8928 8.96238L27.8951 7.22782ZM35.0217 7.27628C35.0217 6.21796 35.0259 5.53564 35.0329 5.44369C35.0635 5.04638 35.1631 4.69556 35.3344 4.38225C35.6594 3.78766 36.1921 3.35285 36.8189 3.17053C37.0407 3.10601 37.1926 3.08155 37.4234 3.0732C38.1123 3.04826 38.7609 3.30378 39.2531 3.79402C39.5774 4.11706 39.8238 4.55703 39.9277 4.9987C39.997 5.29361 39.9929 5.16347 39.9966 7.15157L40 8.96238H39.3788H38.7577V8.33064V7.6989H37.516H36.2743V8.33064V8.96238H35.648H35.0217L35.0217 7.27628ZM38.7555 6.00518C38.7589 5.55887 38.7518 5.43913 38.7127 5.28158C38.6264 4.93379 38.3694 4.61887 38.0443 4.46272C37.5768 4.23821 37.0219 4.33011 36.6558 4.69268C36.5063 4.84073 36.4017 5.00809 36.3355 5.2052C36.28 5.37038 36.2743 5.44022 36.2743 5.95763V6.43551L37.5133 6.43274L38.7522 6.42997L38.7555 6.00518Z" fill="#0066FF"/>
</svg>
