<svg width="25" height="24" viewBox="0 0 25 24" fill="none" xmlns="http://www.w3.org/2000/svg">
<path d="M24.5 12.2659C24.5 11.282 24.4183 10.5641 24.2415 9.81958H12.7449V14.2601H19.4931C19.3571 15.3637 18.6224 17.0256 16.9897 18.1423L16.9669 18.291L20.6019 21.0428L20.8537 21.0674C23.1666 18.98 24.5 15.9088 24.5 12.2659Z" fill="#4285F4"/>
<path d="M12.745 23.9656C16.051 23.9656 18.8265 22.9019 20.8538 21.0673L16.9898 18.1422C15.9558 18.8469 14.568 19.3388 12.745 19.3388C9.50688 19.3388 6.75861 17.2515 5.77892 14.3665L5.63532 14.3784L1.85558 17.2369L1.80615 17.3711C3.81974 21.2799 7.9558 23.9656 12.745 23.9656Z" fill="#34A853"/>
<path d="M5.77886 14.3666C5.52036 13.6221 5.37076 12.8243 5.37076 12.0001C5.37076 11.1757 5.52036 10.378 5.76526 9.63352L5.75841 9.47496L1.93131 6.57056L1.80609 6.62876C0.976196 8.2508 0.5 10.0723 0.5 12.0001C0.5 13.9279 0.976196 15.7493 1.80609 17.3713L5.77886 14.3666Z" fill="#FBBC05"/>
<path d="M12.745 4.66089C15.0442 4.66089 16.5952 5.63144 17.4796 6.44251L20.9354 3.14527C18.813 1.21746 16.051 0.0341797 12.745 0.0341797C7.9558 0.0341797 3.81974 2.7198 1.80615 6.62857L5.76532 9.63333C6.75861 6.74827 9.50689 4.66089 12.745 4.66089Z" fill="#EB4335"/>
</svg>
