<svg width="24" height="24" viewBox="0 0 24 24" fill="none" xmlns="http://www.w3.org/2000/svg">
<rect width="24" height="24" rx="6" fill="#F1F1F1"/>
<path d="M6.27554 18.9528V18.0258C6.27554 17.6704 6.05923 17.4387 5.68842 17.4387C5.50301 17.4387 5.30215 17.5005 5.16309 17.7013C5.05494 17.5314 4.90043 17.4387 4.66867 17.4387C4.51417 17.4387 4.35966 17.485 4.23605 17.655V17.4696H3.91159V18.9528H4.23605V18.1339C4.23605 17.8713 4.37511 17.7477 4.59142 17.7477C4.80773 17.7477 4.91588 17.8867 4.91588 18.1339V18.9528H5.24035V18.1339C5.24035 17.8713 5.39486 17.7477 5.59571 17.7477C5.81202 17.7477 5.92018 17.8867 5.92018 18.1339V18.9528H6.27554ZM11.0807 17.4696H10.5554V17.0215H10.2309V17.4696H9.93735V17.7631H10.2309V18.443C10.2309 18.7829 10.37 18.9837 10.7408 18.9837C10.8798 18.9837 11.0344 18.9374 11.1425 18.8756L11.0498 18.5975C10.9571 18.6593 10.8489 18.6747 10.7717 18.6747C10.6172 18.6747 10.5554 18.582 10.5554 18.4275V17.7631H11.0807V17.4696ZM13.8309 17.4387C13.6455 17.4387 13.5219 17.5314 13.4447 17.655V17.4696H13.1202V18.9528H13.4447V18.1185C13.4447 17.8713 13.5528 17.7322 13.7537 17.7322C13.8155 17.7322 13.8927 17.7477 13.9545 17.7631L14.0472 17.4541C13.9854 17.4387 13.8927 17.4387 13.8309 17.4387ZM9.67469 17.5932C9.52018 17.485 9.30387 17.4387 9.07211 17.4387C8.7013 17.4387 8.45409 17.6241 8.45409 17.9176C8.45409 18.1649 8.6395 18.3039 8.96396 18.3503L9.11847 18.3657C9.28842 18.3966 9.38113 18.443 9.38113 18.5202C9.38113 18.6284 9.25752 18.7056 9.04121 18.7056C8.8249 18.7056 8.65495 18.6284 8.54679 18.5511L8.39229 18.7983C8.56224 18.9219 8.794 18.9837 9.02576 18.9837C9.45838 18.9837 9.70559 18.7829 9.70559 18.5048C9.70559 18.2421 9.50473 18.103 9.19572 18.0567L9.04121 18.0412C8.90216 18.0258 8.794 17.9949 8.794 17.9022C8.794 17.794 8.90216 17.7322 9.07211 17.7322C9.25752 17.7322 9.44293 17.8095 9.53563 17.8558L9.67469 17.5932ZM18.2962 17.4387C18.1108 17.4387 17.9872 17.5314 17.9099 17.655V17.4696H17.5854V18.9528H17.9099V18.1185C17.9099 17.8713 18.0181 17.7322 18.2189 17.7322C18.2807 17.7322 18.358 17.7477 18.4198 17.7631L18.5125 17.4541C18.4507 17.4387 18.358 17.4387 18.2962 17.4387ZM14.1554 18.2112C14.1554 18.6593 14.4644 18.9837 14.9434 18.9837C15.1597 18.9837 15.3142 18.9374 15.4687 18.8138L15.3142 18.5511C15.1906 18.6438 15.067 18.6902 14.9279 18.6902C14.6653 18.6902 14.4799 18.5048 14.4799 18.2112C14.4799 17.9331 14.6653 17.7477 14.9279 17.7322C15.067 17.7322 15.1906 17.7786 15.3142 17.8713L15.4687 17.6086C15.3142 17.485 15.1597 17.4387 14.9434 17.4387C14.4644 17.4387 14.1554 17.7631 14.1554 18.2112ZM17.1528 18.2112V17.4696H16.8284V17.655C16.7202 17.5159 16.5657 17.4387 16.3648 17.4387C15.9477 17.4387 15.6232 17.7631 15.6232 18.2112C15.6232 18.6593 15.9477 18.9837 16.3648 18.9837C16.5811 18.9837 16.7356 18.9065 16.8284 18.7674V18.9528H17.1528V18.2112ZM15.9631 18.2112C15.9631 17.9485 16.1331 17.7322 16.4112 17.7322C16.6738 17.7322 16.8593 17.9331 16.8593 18.2112C16.8593 18.4739 16.6738 18.6902 16.4112 18.6902C16.1331 18.6747 15.9631 18.4739 15.9631 18.2112ZM12.085 17.4387C11.6524 17.4387 11.3434 17.7477 11.3434 18.2112C11.3434 18.6747 11.6524 18.9837 12.1004 18.9837C12.3168 18.9837 12.5331 18.9219 12.703 18.7829L12.5485 18.5511C12.4249 18.6438 12.2704 18.7056 12.1159 18.7056C11.915 18.7056 11.7142 18.6129 11.6678 18.3503H12.7648V18.2267C12.7803 17.7477 12.5022 17.4387 12.085 17.4387ZM12.085 17.7168C12.2859 17.7168 12.4249 17.8404 12.4558 18.0721H11.6833C11.7142 17.8713 11.8532 17.7168 12.085 17.7168ZM20.1348 18.2112V16.8824H19.8103V17.655C19.7022 17.5159 19.5477 17.4387 19.3468 17.4387C18.9296 17.4387 18.6052 17.7631 18.6052 18.2112C18.6052 18.6593 18.9296 18.9837 19.3468 18.9837C19.5631 18.9837 19.7176 18.9065 19.8103 18.7674V18.9528H20.1348V18.2112ZM18.9451 18.2112C18.9451 17.9485 19.1151 17.7322 19.3932 17.7322C19.6558 17.7322 19.8412 17.9331 19.8412 18.2112C19.8412 18.4739 19.6558 18.6902 19.3932 18.6902C19.1151 18.6747 18.9451 18.4739 18.9451 18.2112ZM8.09872 18.2112V17.4696H7.77426V17.655C7.6661 17.5159 7.5116 17.4387 7.31074 17.4387C6.89357 17.4387 6.56911 17.7631 6.56911 18.2112C6.56911 18.6593 6.89357 18.9837 7.31074 18.9837C7.52705 18.9837 7.68155 18.9065 7.77426 18.7674V18.9528H8.09872V18.2112ZM6.89357 18.2112C6.89357 17.9485 7.06353 17.7322 7.34164 17.7322C7.6043 17.7322 7.78971 17.9331 7.78971 18.2112C7.78971 18.4739 7.6043 18.6902 7.34164 18.6902C7.06353 18.6747 6.89357 18.4739 6.89357 18.2112Z" fill="#242424"/>
<path d="M14.4335 6.20605H9.56656V14.9511H14.4335V6.20605Z" fill="#FF5F00"/>
<path d="M9.87555 10.5786C9.87555 8.80177 10.7099 7.2258 11.9923 6.20606C11.0498 5.46443 9.8601 5.01636 8.56224 5.01636C5.48756 5.01636 3 7.50392 3 10.5786C3 13.6533 5.48756 16.1408 8.56224 16.1408C9.8601 16.1408 11.0498 15.6928 11.9923 14.9511C10.7099 13.9468 9.87555 12.3554 9.87555 10.5786Z" fill="#EB001B"/>
<path d="M21 10.5786C21 13.6533 18.5125 16.1408 15.4378 16.1408C14.1399 16.1408 12.9502 15.6928 12.0078 14.9511C13.3056 13.9314 14.1245 12.3554 14.1245 10.5786C14.1245 8.80177 13.2902 7.2258 12.0078 6.20606C12.9502 5.46443 14.1399 5.01636 15.4378 5.01636C18.5125 5.01636 21 7.51937 21 10.5786Z" fill="#F79E1B"/>
</svg>
