<svg width="40" height="28" viewBox="0 0 40 28" fill="none" xmlns="http://www.w3.org/2000/svg">
<path d="M12.4441 9.504C12.482 10.3621 13.2235 13.6368 13.2235 13.6368C13.4959 14.3 13.7305 13.6368 13.7305 13.6368C14.6275 10.9465 12.7944 9.38754 12.7944 9.38754C12.3264 9.11404 12.4441 9.504 12.4441 9.504ZM23.0876 9.03646C23.0876 9.03646 23.985 9.66022 23.0876 9.7771C23.0876 9.7771 19.7344 10.1668 17.2393 12.5068C17.2393 12.5068 13.4959 15.7807 12.0927 19.3679C12.0927 19.3679 11.6247 19.3679 11.7813 18.6664C11.9371 17.9647 12.8724 14.8844 17.0438 11.1032C17.0438 11.1032 21.0608 7.43795 23.0876 9.03646Z" fill="#FF4600"/>
<path d="M6.02852 14.2273C6.17665 14.2585 6.30965 14.2738 6.50498 14.2738C7.26978 14.2738 7.78512 13.7819 7.78512 13.1571C7.78512 12.595 7.38707 12.3923 6.8722 12.3923C6.64525 12.3923 6.47349 12.408 6.3643 12.4388L6.02852 14.2273ZM5.59909 11.7909C5.91927 11.7125 6.39573 11.666 6.8641 11.666C7.35628 11.666 7.87156 11.7671 8.21496 12.0408C8.51949 12.275 8.69905 12.618 8.69905 13.0872C8.69905 13.7115 8.40221 14.2196 8.02737 14.516C7.60597 14.8518 7.00414 15.0158 6.37955 15.0158C6.19196 15.0158 6.02852 14.9921 5.88784 14.9768L5.50515 16.9681H4.61538L5.59909 11.7909ZM11.1113 13.8207C11.0178 13.7969 10.9009 13.7819 10.7368 13.7819C9.90131 13.7819 9.24529 14.727 9.24529 15.5939C9.24529 15.9915 9.39366 16.3198 9.79206 16.3198C10.2211 16.3198 10.7368 15.7891 10.9165 14.8206L11.1113 13.8207ZM10.7445 16.9681C10.7445 16.7412 10.7756 16.4371 10.8072 16.1164H10.7915C10.4168 16.8119 9.90894 17.0537 9.42485 17.0537C8.74573 17.0537 8.30011 16.5227 8.30011 15.7577C8.30011 14.4614 9.206 13.0791 10.9787 13.0791C11.3924 13.0791 11.8377 13.1571 12.1345 13.2508L11.7363 15.2343C11.6267 15.7964 11.5644 16.515 11.5801 16.9681H10.7445ZM17.3024 15.4609C17.3024 15.9835 17.5757 16.3515 18.0443 16.3515C18.7236 16.3515 19.1767 15.414 19.1767 14.6565C19.1767 14.2658 18.9967 13.7817 18.4506 13.7817C17.7242 13.7817 17.3024 14.7503 17.3024 15.4609ZM20.1136 14.6491C20.1136 15.945 19.2154 17.0536 17.9195 17.0536C16.9586 17.0536 16.3657 16.39 16.3657 15.4839C16.3657 14.1959 17.2635 13.0792 18.5598 13.0792C19.5826 13.0792 20.1136 13.8132 20.1136 14.6491ZM20.2846 16.9681L20.7768 14.3441C20.8703 13.8911 20.9249 13.4929 20.9719 13.1652H21.7845L21.6984 13.8445H21.7137C22.0648 13.3367 22.5493 13.0791 23.0804 13.0791C23.6267 13.0791 24.0485 13.4074 24.0485 14.1257C24.0485 14.2972 24.0179 14.5625 23.9786 14.7502L23.564 16.9681H22.6505L23.0562 14.8206C23.0804 14.6801 23.1036 14.516 23.1036 14.3675C23.1036 14.0473 22.9865 13.8207 22.6274 13.8207C22.2136 13.8207 21.6824 14.3204 21.5185 15.2111L21.1907 16.9681H20.2846ZM26.4683 13.7585C25.898 13.7585 25.5235 14.2659 25.4143 14.727C26.351 14.7347 26.9528 14.6098 26.9528 14.1492C26.9528 13.9072 26.7575 13.7585 26.4683 13.7585ZM27.3351 16.7492C26.9601 16.9443 26.453 17.0537 25.9919 17.0537C24.9387 17.0537 24.4308 16.406 24.4308 15.4765C24.4308 14.3286 25.2736 13.0793 26.5856 13.0793C27.3351 13.0793 27.8116 13.5085 27.8116 14.1492C27.8116 15.125 26.789 15.4372 25.321 15.4062C25.305 15.5387 25.3363 15.7964 25.4224 15.9449C25.5709 16.2029 25.8434 16.3355 26.2031 16.3355C26.633 16.3355 26.976 16.226 27.2501 16.0856L27.3351 16.7492ZM30.0049 13.7585C29.4352 13.7585 29.0602 14.2659 28.9509 14.727C29.8876 14.7347 30.4895 14.6098 30.4895 14.1492C30.4895 13.9072 30.2942 13.7585 30.0049 13.7585ZM30.8718 16.7492C30.4973 16.9443 29.9896 17.0537 29.5293 17.0537C28.4753 17.0537 27.9674 16.406 27.9674 15.4765C27.9674 14.3286 28.8103 13.0793 30.1223 13.0793C30.8717 13.0793 31.349 13.5085 31.349 14.1492C31.349 15.125 30.3256 15.4372 28.8576 15.4062C28.8415 15.5387 28.8729 15.7964 28.959 15.9449C29.1075 16.2029 29.3806 16.3355 29.7397 16.3355C30.1696 16.3355 30.5126 16.226 30.7867 16.0856L30.8718 16.7492ZM31.4029 16.9681L31.8478 14.6253C31.9492 14.0866 32.0038 13.5009 32.0423 13.1651H32.8313C32.808 13.4227 32.7848 13.6881 32.7455 13.9618H32.7686C33.0275 13.454 33.4404 13.0791 33.9561 13.0791C34.0268 13.0791 34.0968 13.0872 34.1595 13.0872L33.9795 13.9774C33.9327 13.9693 33.8703 13.9693 33.8076 13.9693C33.159 13.9693 32.7455 14.6253 32.5976 15.4372L32.3083 16.9681H31.4029ZM34.8503 13.513H34.9169C34.9852 13.513 35.0303 13.4749 35.0303 13.4175C35.0303 13.3527 34.9829 13.3243 34.9147 13.3243C34.8832 13.3243 34.8609 13.3266 34.8503 13.3291L34.8503 13.513ZM34.7852 13.2836C34.8263 13.2767 34.868 13.2732 34.9097 13.2733C34.9788 13.2733 35.0247 13.2873 35.0551 13.3146C35.0801 13.3368 35.0946 13.3713 35.0946 13.411C35.0946 13.4764 35.0535 13.5207 35.0005 13.5383V13.5407C35.039 13.554 35.0615 13.5902 35.0744 13.6423C35.0905 13.7118 35.1025 13.7609 35.113 13.7805H35.0456C35.0375 13.7652 35.0261 13.7228 35.0134 13.6601C34.9981 13.5906 34.9701 13.5649 34.9113 13.5625H34.8503V13.7805H34.7852V13.2836Z" fill="black"/>
<path d="M34.9347 13.0791C34.8153 13.0792 34.7009 13.1266 34.6166 13.211C34.5322 13.2953 34.4848 13.4097 34.4847 13.5291C34.4847 13.7773 34.6864 13.9792 34.9347 13.9792C35.1829 13.9792 35.3846 13.7773 35.3846 13.5291C35.3845 13.4097 35.3371 13.2953 35.2527 13.211C35.1684 13.1266 35.054 13.0792 34.9347 13.0791ZM34.9347 13.1486C34.9846 13.1486 35.0341 13.1584 35.0802 13.1776C35.1263 13.1967 35.1682 13.2247 35.2035 13.2601C35.2388 13.2954 35.2668 13.3373 35.2859 13.3835C35.3049 13.4297 35.3147 13.4791 35.3147 13.5291C35.3147 13.7395 35.1444 13.9099 34.9347 13.9099C34.8846 13.9099 34.8351 13.9 34.7889 13.8809C34.7427 13.8618 34.7007 13.8337 34.6653 13.7984C34.63 13.763 34.6019 13.721 34.5828 13.6748C34.5636 13.6286 34.5538 13.5791 34.5538 13.5291C34.5538 13.4791 34.5636 13.4295 34.5827 13.3833C34.6019 13.3371 34.6299 13.2952 34.6653 13.2598C34.7007 13.2245 34.7427 13.1965 34.7889 13.1774C34.8351 13.1583 34.8847 13.1485 34.9347 13.1486Z" fill="black"/>
</svg>
