<svg width="25" height="24" viewBox="0 0 25 24" fill="none" xmlns="http://www.w3.org/2000/svg">
<path d="M13.03 20.42H6.71C3.55 20.42 2.5 18.32 2.5 16.21V7.79002C2.5 4.63002 3.55 3.58002 6.71 3.58002H13.03C16.19 3.58002 17.24 4.63002 17.24 7.79002V16.21C17.24 19.37 16.18 20.42 13.03 20.42Z" stroke="#22C55E" stroke-width="1.5" stroke-linecap="round" stroke-linejoin="round"/>
<path d="M20.02 17.1L17.24 15.15V8.84001L20.02 6.89001C21.38 5.94001 22.5 6.52001 22.5 8.19001V15.81C22.5 17.48 21.38 18.06 20.02 17.1Z" stroke="#22C55E" stroke-width="1.5" stroke-linecap="round" stroke-linejoin="round"/>
<path d="M12 11C12.8284 11 13.5 10.3284 13.5 9.5C13.5 8.67157 12.8284 8 12 8C11.1716 8 10.5 8.67157 10.5 9.5C10.5 10.3284 11.1716 11 12 11Z" stroke="#22C55E" stroke-width="1.5" stroke-linecap="round" stroke-linejoin="round"/>
</svg>
